<svg width="251" height="33" viewBox="0 0 251 33" fill="none" xmlns="http://www.w3.org/2000/svg">
<path d="M16.5 0.358398L20.2045 11.364H32.1924L22.494 18.1658L26.1985 29.1714L16.5 22.3696L6.80154 29.1714L10.506 18.1658L0.807568 11.364H12.7955L16.5 0.358398Z" fill="white"/>
<path d="M60.5 0.358398L64.2045 11.364H76.1924L66.494 18.1658L70.1985 29.1714L60.5 22.3696L50.8015 29.1714L54.506 18.1658L44.8076 11.364H56.7955L60.5 0.358398Z" fill="#8BD6C8"/>
<path d="M105 0.358398L108.592 11.364H120.217L110.812 18.1658L114.405 29.1714L105 22.3696L95.5954 29.1714L99.1877 18.1658L89.7831 11.364H101.408L105 0.358398Z" fill="#8BD6C8"/>
<path d="M149.5 0.358398L153.204 11.364H165.192L155.494 18.1658L159.198 29.1714L149.5 22.3696L139.802 29.1714L143.506 18.1658L133.808 11.364H145.796L149.5 0.358398Z" fill="#8BD6C8"/>
<path d="M193.5 0.358398L197.204 11.364H209.192L199.494 18.1658L203.198 29.1714L193.5 22.3696L183.802 29.1714L187.506 18.1658L177.808 11.364H189.796L193.5 0.358398Z" fill="#8BD6C8"/>
<path d="M219.94 22.6821V20.4021L226.14 11.9221H229.54V20.2421H231.54V22.6821H229.54V25.3221H226.8V22.6821H219.94ZM226.86 20.3021V15.0821L223.04 20.3021H226.86ZM233.231 23.6621C233.231 23.1688 233.397 22.7555 233.731 22.4221C234.077 22.0755 234.497 21.9021 234.991 21.9021C235.484 21.9021 235.897 22.0755 236.231 22.4221C236.577 22.7555 236.751 23.1688 236.751 23.6621C236.751 24.1555 236.584 24.5688 236.251 24.9021C235.904 25.2488 235.484 25.4221 234.991 25.4221C234.497 25.4221 234.077 25.2555 233.731 24.9221C233.397 24.5755 233.231 24.1555 233.231 23.6621ZM239.839 13.5421C240.786 12.2888 242.133 11.6621 243.879 11.6621C245.613 11.6621 246.959 12.2955 247.919 13.5621C248.879 14.8155 249.359 16.5021 249.359 18.6221C249.359 20.7421 248.879 22.4355 247.919 23.7021C246.959 24.9555 245.613 25.5821 243.879 25.5821C242.133 25.5821 240.779 24.9555 239.819 23.7021C238.873 22.4355 238.399 20.7421 238.399 18.6221C238.399 16.5021 238.879 14.8088 239.839 13.5421ZM241.219 18.6221C241.219 20.0355 241.446 21.1221 241.899 21.8821C242.353 22.6421 243.013 23.0221 243.879 23.0221C244.746 23.0221 245.406 22.6421 245.859 21.8821C246.313 21.1221 246.539 20.0355 246.539 18.6221C246.539 17.2221 246.313 16.1421 245.859 15.3821C245.406 14.6088 244.746 14.2221 243.879 14.2221C243.013 14.2221 242.353 14.6088 241.899 15.3821C241.446 16.1421 241.219 17.2221 241.219 18.6221Z" fill="white"/>
</svg>
